<?xml version="1.0" standalone="no"?>
<!DOCTYPE svg PUBLIC "-//W3C//DTD SVG 20010904//EN"
 "http://www.w3.org/TR/2001/REC-SVG-20010904/DTD/svg10.dtd">
<svg version="1.0" xmlns="http://www.w3.org/2000/svg"
 width="512.000000pt" height="512.000000pt" viewBox="0 0 512.000000 512.000000"
 preserveAspectRatio="xMidYMid meet">
<metadata>
Created by potrace 1.14, written by Peter Selinger 2001-2017
</metadata>
<g transform="translate(0.000000,512.000000) scale(0.100000,-0.100000)"
fill="#000000" stroke="none">
<path d="M2469 5106 c-88 -31 -157 -95 -191 -177 -16 -37 -27 -49 -48 -54 -78
-17 -175 -121 -197 -211 -35 -143 39 -296 173 -356 24 -10 44 -22 45 -26 0 -4
1 -148 2 -320 1 -202 -2 -312 -8 -313 -28 -3 -602 -4 -615 -1 -9 2 -26 24 -40
48 -91 173 -356 201 -485 51 -50 -58 -52 -61 -59 -85 -4 -12 -22 -26 -44 -33
-87 -28 -177 -124 -198 -210 -26 -110 4 -218 81 -294 29 -29 72 -59 98 -69 35
-13 47 -23 47 -38 0 -26 45 -116 73 -147 159 -172 466 -95 521 132 6 24 11 27
46 27 52 0 499 0 548 0 l37 0 -2 -1068 c-1 -587 -2 -1074 -2 -1083 -1 -10 -21
-25 -48 -37 -63 -27 -116 -80 -150 -150 -73 -149 -3 -333 154 -407 30 -15 53
-32 53 -41 0 -30 50 -120 87 -156 90 -87 233 -110 345 -55 73 36 132 103 155
174 16 51 21 57 70 80 235 111 236 443 2 554 -27 13 -49 31 -50 39 -3 65 -1
2141 2 2145 5 4 246 7 501 6 l118 -1 6 -27 c42 -174 230 -270 404 -207 90 32
145 91 181 194 13 39 23 49 70 72 63 32 124 95 150 157 23 53 31 148 16 199
-28 96 -110 182 -203 212 -21 7 -36 21 -42 38 -22 62 -133 156 -200 169 -137
28 -262 -19 -329 -122 -18 -28 -37 -54 -41 -60 -9 -11 -617 -13 -628 -2 -5 5
-9 535 -5 618 1 10 24 28 55 43 108 53 170 152 169 272 0 125 -66 227 -180
281 -44 20 -56 32 -79 78 -31 64 -88 119 -153 148 -55 24 -161 31 -212 13z"/>
<path d="M0 4849 c0 -64 4 -98 10 -94 13 8 13 195 0 195 -6 0 -10 -40 -10
-101z"/>
<path d="M7 4563 c-11 -10 -8 -83 3 -83 6 0 10 20 10 45 0 46 -2 50 -13 38z"/>
<path d="M7 4354 c-4 -4 -7 -26 -7 -48 1 -33 3 -38 11 -23 11 19 8 83 -4 71z"/>
<path d="M6 4044 c-10 -27 -7 -334 4 -334 6 0 10 65 10 175 0 96 -2 175 -4
175 -2 0 -7 -7 -10 -16z"/>
<path d="M7 3553 c-11 -11 -8 -513 3 -513 6 0 10 93 10 260 0 143 -1 260 -3
260 -2 0 -7 -3 -10 -7z"/>
<path d="M0 2855 c0 -50 4 -85 10 -85 6 0 10 35 10 85 0 50 -4 85 -10 85 -6 0
-10 -35 -10 -85z"/>
<path d="M0 2485 c0 -123 4 -195 10 -195 6 0 10 72 10 195 0 123 -4 195 -10
195 -6 0 -10 -72 -10 -195z"/>
</g>
</svg>
